<svg width="112" height="36" viewBox="0 0 112 36" fill="none" xmlns="http://www.w3.org/2000/svg">
<path d="M40.0093 7.1679C40.3854 7.59835 40.7197 8.05388 41.0206 8.52194C40.8075 8.13328 40.5609 7.76134 40.2642 7.41447L34.8399 1.5595L34.8357 1.56368C34.8315 1.5595 34.8273 1.55532 34.8232 1.55114C33.0011 -0.408878 29.9296 -0.517535 27.9655 1.30875C26.0014 3.13503 25.8885 6.2067 27.7106 8.16672L36.361 17.5071C37.4517 17.3107 38.5048 16.8259 39.3991 16.0444C42.0068 13.7542 42.2784 9.78822 40.0093 7.1679ZM39.8797 7.02581C39.9048 7.05507 39.9299 7.08432 39.9549 7.11357C39.9299 7.08014 39.9048 7.05089 39.8797 7.02581Z" fill="url(#paint0_linear_194_22)"/>
<path d="M41.0166 8.52293C40.7198 8.05487 40.3814 7.60352 40.0052 7.16889C42.2744 9.78921 42.0028 13.7552 39.3951 16.0412C38.5008 16.8227 37.4477 17.3075 36.357 17.5039C34.3511 17.8633 32.2198 17.2448 30.7154 15.6902L30.7112 15.6943L22.9133 7.44889L19.1021 3.4202L19.1062 3.42438C18.6382 2.97721 18.3666 2.73482 17.8525 2.31273L17.8358 2.30019C15.4162 0.862567 12.2402 1.18436 10.1591 3.26557C9.28566 4.13901 8.72149 5.20469 8.47076 6.3247L23.1557 21.8502C23.1598 21.8586 23.1682 21.8627 23.1724 21.8711C27.2385 26.5141 34.301 26.978 38.9396 22.9117C43.1437 19.2299 43.9251 13.0949 41.0166 8.52293Z" fill="url(#paint1_linear_194_22)"/>
<path d="M10.1591 3.26505C12.2402 1.18384 15.4162 0.862043 17.8358 2.29967C17.8442 2.30385 17.8567 2.3122 17.8651 2.31638C13.4981 -1.05618 7.28394 -0.751105 3.27213 3.26505C-1.09071 7.62807 -1.09071 14.7033 3.27213 19.0705C3.27631 19.0747 3.28049 19.0789 3.28467 19.0831L7.83557 23.9978L7.84392 23.9894C7.88153 24.0312 7.91914 24.073 7.95675 24.1148C9.77878 26.0748 12.8461 26.1876 14.8103 24.3655C16.7702 22.5434 16.883 19.4759 15.061 17.5117C15.0276 17.4741 14.9941 17.4407 14.9565 17.4031L14.9691 17.3905L14.71 17.1105L9.93341 11.9535L9.93758 11.9493C8.52092 10.3779 8.03198 8.26748 8.47077 6.32418C8.72568 5.20417 9.28984 4.13849 10.1591 3.26505Z" fill="url(#paint2_linear_194_22)"/>
<path d="M105.482 21.5957C104.349 21.5957 103.329 21.4581 102.422 21.1828C101.516 20.8914 100.649 20.3894 99.8237 19.677C99.6132 19.4989 99.4513 19.2965 99.338 19.0698C99.2246 18.8431 99.168 18.6164 99.168 18.3897C99.168 18.0173 99.2975 17.6935 99.5565 17.4182C99.8318 17.1268 100.172 16.981 100.577 16.981C100.884 16.981 101.159 17.0782 101.402 17.2725C102.018 17.7744 102.625 18.1549 103.224 18.414C103.839 18.6731 104.592 18.8026 105.482 18.8026C106.082 18.8026 106.632 18.7136 107.134 18.5354C107.636 18.3411 108.041 18.0902 108.348 17.7825C108.656 17.4587 108.81 17.0944 108.81 16.6896C108.81 16.2038 108.664 15.7909 108.373 15.4509C108.081 15.1109 107.636 14.8275 107.037 14.6008C106.438 14.358 105.677 14.1718 104.754 14.0422C103.88 13.9127 103.11 13.7184 102.447 13.4593C101.783 13.1841 101.224 12.844 100.771 12.4392C100.334 12.0182 100.002 11.5325 99.7751 10.982C99.5484 10.4153 99.4351 9.78378 99.4351 9.08753C99.4351 8.03507 99.7023 7.13642 100.237 6.3916C100.787 5.64678 101.524 5.08006 102.447 4.69146C103.37 4.30286 104.39 4.10855 105.507 4.10855C106.559 4.10855 107.531 4.27047 108.421 4.59431C109.328 4.90195 110.065 5.29865 110.631 5.78441C111.101 6.15682 111.336 6.5859 111.336 7.07166C111.336 7.42787 111.198 7.75171 110.923 8.04316C110.647 8.33462 110.324 8.48034 109.951 8.48034C109.708 8.48034 109.49 8.40748 109.296 8.26175C109.036 8.03507 108.688 7.82457 108.251 7.63027C107.814 7.41978 107.353 7.24976 106.867 7.12023C106.381 6.9745 105.928 6.90164 105.507 6.90164C104.811 6.90164 104.22 6.9907 103.734 7.16881C103.264 7.34692 102.908 7.58979 102.665 7.89744C102.422 8.20508 102.301 8.5613 102.301 8.96609C102.301 9.45185 102.439 9.85665 102.714 10.1805C103.005 10.4881 103.418 10.7391 103.952 10.9334C104.487 11.1115 105.126 11.2734 105.871 11.4192C106.843 11.5973 107.693 11.8078 108.421 12.0506C109.166 12.2935 109.781 12.6093 110.267 12.9979C110.753 13.3703 111.117 13.8479 111.36 14.4308C111.603 14.9975 111.724 15.6938 111.724 16.5196C111.724 17.572 111.433 18.4788 110.85 19.2398C110.267 20.0008 109.498 20.5837 108.543 20.9885C107.604 21.3933 106.583 21.5957 105.482 21.5957Z" fill="#222222"/>
<path d="M90.2633 8.1638L85.0174 20.502C84.904 20.8096 84.7259 21.0525 84.4831 21.2306C84.2564 21.3925 84.0054 21.4735 83.7302 21.4735C83.293 21.4735 82.9692 21.352 82.7587 21.1091C82.5482 20.8663 82.443 20.5667 82.443 20.2105C82.443 20.0648 82.4673 19.911 82.5159 19.749L88.5632 5.22499C88.6928 4.90115 88.8871 4.65018 89.1461 4.47207C89.4214 4.29396 89.7128 4.2211 90.0204 4.25348C90.3119 4.25348 90.579 4.34254 90.8219 4.52065C91.081 4.68256 91.2672 4.91735 91.3805 5.22499L97.355 19.4576C97.436 19.6681 97.4765 19.8624 97.4765 20.0405C97.4765 20.4777 97.3307 20.8258 97.0393 21.0849C96.764 21.3439 96.4564 21.4735 96.1164 21.4735C95.825 21.4735 95.5578 21.3844 95.3149 21.2063C95.0883 21.0282 94.9102 20.7853 94.7806 20.4777L89.559 8.30953L90.2633 8.1638ZM85.7703 17.5389L87.106 14.7458H93.6634L94.1249 17.5389H85.7703Z" fill="#222222"/>
<path d="M75.2991 21.352C74.8457 21.352 74.4733 21.2144 74.1819 20.9391C73.8904 20.6476 73.7447 20.2914 73.7447 19.8704V5.78357H76.902V19.8704C76.902 20.2914 76.7482 20.6476 76.4405 20.9391C76.1491 21.2144 75.7686 21.352 75.2991 21.352ZM69.9317 7.14368C69.5107 7.14368 69.1545 7.01414 68.8631 6.75508C68.5878 6.49601 68.4502 6.15598 68.4502 5.73499C68.4502 5.314 68.5878 4.98207 68.8631 4.7392C69.1545 4.48013 69.5107 4.35059 69.9317 4.35059H80.715C81.136 4.35059 81.4841 4.48013 81.7593 4.7392C82.0508 4.99826 82.1965 5.33829 82.1965 5.75928C82.1965 6.18027 82.0508 6.52029 81.7593 6.77936C81.4841 7.02224 81.136 7.14368 80.715 7.14368H69.9317Z" fill="#222222"/>
<path d="M64.0942 4.35059C64.4828 4.35059 64.7985 4.48013 65.0414 4.7392C65.2842 4.99826 65.4057 5.3221 65.4057 5.7107V19.8704C65.4057 20.2914 65.2599 20.6476 64.9685 20.9391C64.6932 21.2144 64.3451 21.352 63.9242 21.352C63.7137 21.352 63.4951 21.3196 63.2684 21.2548C63.0579 21.1739 62.896 21.0686 62.7827 20.9391L53.238 8.81953L53.8695 8.43093V19.9919C53.8695 20.3805 53.7399 20.7043 53.4809 20.9634C53.238 21.2225 52.9142 21.352 52.5094 21.352C52.1208 21.352 51.8051 21.2225 51.5622 20.9634C51.3194 20.7043 51.1979 20.3805 51.1979 19.9919V5.83214C51.1979 5.41116 51.3356 5.06303 51.6108 4.78777C51.9023 4.49632 52.2585 4.35059 52.6794 4.35059C52.9061 4.35059 53.1409 4.39917 53.3837 4.49632C53.6266 4.57728 53.8047 4.70681 53.918 4.88492L63.1713 16.6888L62.7584 16.9802V5.7107C62.7584 5.3221 62.8798 4.99826 63.1227 4.7392C63.3656 4.48013 63.6894 4.35059 64.0942 4.35059Z" fill="#222222"/>
<path d="M110.304 31.2275C110.668 31.2275 110.944 31.3227 111.13 31.5129C111.32 31.6991 111.415 32.0027 111.415 32.4237V34.5428H110.887V32.4601C110.887 32.197 110.832 32.0007 110.723 31.8712C110.614 31.7416 110.446 31.6769 110.219 31.6769C109.887 31.6769 109.657 31.7781 109.527 31.9805C109.401 32.1829 109.339 32.4743 109.339 32.8548V34.5428H108.811V31.2883H109.236L109.314 31.7315H109.345C109.41 31.6182 109.493 31.5251 109.594 31.4522C109.695 31.3753 109.806 31.3186 109.928 31.2822C110.049 31.2458 110.175 31.2275 110.304 31.2275Z" fill="#999999"/>
<path d="M108.268 32.9095C108.268 33.1807 108.233 33.4215 108.165 33.632C108.1 33.8385 108.005 34.0146 107.879 34.1603C107.754 34.306 107.602 34.4173 107.424 34.4942C107.246 34.5671 107.047 34.6035 106.829 34.6035C106.626 34.6035 106.438 34.5671 106.264 34.4942C106.094 34.4173 105.944 34.306 105.815 34.1603C105.689 34.0146 105.592 33.8385 105.523 33.632C105.455 33.4215 105.42 33.1807 105.42 32.9095C105.42 32.5492 105.477 32.2456 105.59 31.9987C105.708 31.7477 105.874 31.5574 106.088 31.4279C106.303 31.2943 106.556 31.2275 106.847 31.2275C107.126 31.2275 107.371 31.2943 107.582 31.4279C107.796 31.5574 107.964 31.7477 108.086 31.9987C108.207 32.2456 108.268 32.5492 108.268 32.9095ZM105.967 32.9095C105.967 33.1645 105.997 33.3871 106.058 33.5774C106.118 33.7636 106.214 33.9073 106.343 34.0085C106.473 34.1097 106.639 34.1603 106.841 34.1603C107.043 34.1603 107.209 34.1097 107.339 34.0085C107.468 33.9073 107.564 33.7636 107.624 33.5774C107.689 33.3871 107.721 33.1645 107.721 32.9095C107.721 32.6504 107.689 32.4298 107.624 32.2476C107.564 32.0655 107.468 31.9258 107.339 31.8287C107.209 31.7275 107.041 31.6769 106.835 31.6769C106.531 31.6769 106.311 31.7862 106.173 32.0047C106.036 32.2233 105.967 32.5249 105.967 32.9095Z" fill="#999999"/>
<path d="M104.873 31.2883V34.5428H104.345V31.2883H104.873ZM104.612 30.0678C104.693 30.0678 104.764 30.0961 104.825 30.1528C104.885 30.2054 104.916 30.2904 104.916 30.4078C104.916 30.5212 104.885 30.6062 104.825 30.6629C104.764 30.7195 104.693 30.7479 104.612 30.7479C104.527 30.7479 104.454 30.7195 104.393 30.6629C104.333 30.6062 104.302 30.5212 104.302 30.4078C104.302 30.2904 104.333 30.2054 104.393 30.1528C104.454 30.0961 104.527 30.0678 104.612 30.0678Z" fill="#999999"/>
<path d="M103.539 34.1661C103.616 34.1661 103.695 34.16 103.776 34.1479C103.857 34.1317 103.923 34.1155 103.976 34.0993V34.5061C103.919 34.5345 103.838 34.5567 103.733 34.5729C103.632 34.5932 103.535 34.6033 103.442 34.6033C103.28 34.6033 103.13 34.5749 102.992 34.5183C102.855 34.4575 102.743 34.3543 102.658 34.2086C102.577 34.0629 102.537 33.8585 102.537 33.5953V31.7009H102.106V31.4459L102.549 31.2334L102.749 30.5412H103.065V31.288H103.952V31.7009H103.065V33.5832C103.065 33.7815 103.11 33.9293 103.199 34.0264C103.288 34.1195 103.401 34.1661 103.539 34.1661Z" fill="#999999"/>
<path d="M101.772 31.288V34.5426H101.347L101.268 34.1115H101.244C101.179 34.2248 101.094 34.3179 100.989 34.3908C100.888 34.4636 100.776 34.5162 100.655 34.5486C100.534 34.5851 100.406 34.6033 100.273 34.6033C100.03 34.6033 99.8252 34.5628 99.6593 34.4818C99.4933 34.3968 99.3678 34.2673 99.2828 34.0932C99.2019 33.9192 99.1614 33.6945 99.1614 33.4193V31.288H99.6957V33.3828C99.6957 33.6419 99.7504 33.8362 99.8597 33.9657C99.9689 34.0953 100.137 34.16 100.364 34.16C100.586 34.16 100.76 34.1155 100.886 34.0264C101.015 33.9333 101.106 33.7998 101.159 33.6257C101.216 33.4476 101.244 33.233 101.244 32.9821V31.288H101.772Z" fill="#999999"/>
<path d="M98.4747 34.5429H97.9465V29.9282H98.4747V34.5429Z" fill="#999999"/>
<path d="M97.4038 32.9095C97.4038 33.1807 97.3694 33.4215 97.3006 33.632C97.2358 33.8385 97.1407 34.0146 97.0152 34.1603C96.8897 34.306 96.7379 34.4173 96.5598 34.4942C96.3817 34.5671 96.1834 34.6035 95.9648 34.6035C95.7624 34.6035 95.5742 34.5671 95.4001 34.4942C95.2301 34.4173 95.0804 34.306 94.9508 34.1603C94.8254 34.0146 94.7282 33.8385 94.6594 33.632C94.5906 33.4215 94.5562 33.1807 94.5562 32.9095C94.5562 32.5492 94.6129 32.2456 94.7262 31.9987C94.8436 31.7477 95.0095 31.5574 95.2241 31.4279C95.4386 31.2943 95.6916 31.2275 95.983 31.2275C96.2623 31.2275 96.5072 31.2943 96.7177 31.4279C96.9322 31.5574 97.1002 31.7477 97.2217 31.9987C97.3431 32.2456 97.4038 32.5492 97.4038 32.9095ZM95.1026 32.9095C95.1026 33.1645 95.133 33.3871 95.1937 33.5774C95.2544 33.7636 95.3496 33.9073 95.4791 34.0085C95.6086 34.1097 95.7746 34.1603 95.977 34.1603C96.1793 34.1603 96.3453 34.1097 96.4748 34.0085C96.6044 33.9073 96.6995 33.7636 96.7602 33.5774C96.825 33.3871 96.8574 33.1645 96.8574 32.9095C96.8574 32.6504 96.825 32.4298 96.7602 32.2476C96.6995 32.0655 96.6044 31.9258 96.4748 31.8287C96.3453 31.7275 96.1773 31.6769 95.9709 31.6769C95.6673 31.6769 95.4467 31.7862 95.3091 32.0047C95.1714 32.2233 95.1026 32.5249 95.1026 32.9095Z" fill="#999999"/>
<path d="M94.2259 33.3831C94.2259 33.6421 94.1652 33.8627 94.0437 34.0449C93.9263 34.223 93.7584 34.3606 93.5398 34.4578C93.3252 34.5549 93.0682 34.6035 92.7687 34.6035C92.6189 34.6035 92.4732 34.5954 92.3315 34.5792C92.1939 34.563 92.0664 34.5408 91.949 34.5124C91.8357 34.4801 91.7345 34.4416 91.6454 34.3971V33.8749C91.7871 33.9397 91.9591 33.9984 92.1615 34.051C92.3679 34.1036 92.5784 34.1299 92.793 34.1299C92.9913 34.1299 93.1552 34.1016 93.2848 34.0449C93.4183 33.9882 93.5175 33.9073 93.5823 33.802C93.6511 33.6968 93.6855 33.5733 93.6855 33.4316C93.6855 33.29 93.6551 33.1705 93.5944 33.0734C93.5377 32.9762 93.4406 32.8872 93.303 32.8062C93.1654 32.7212 92.9771 32.6322 92.7383 32.5391C92.5683 32.4703 92.4185 32.3974 92.289 32.3205C92.1595 32.2395 92.0502 32.1484 91.9611 32.0472C91.8721 31.946 91.8053 31.8307 91.7608 31.7011C91.7163 31.5716 91.694 31.4218 91.694 31.2518C91.694 31.0211 91.7486 30.8248 91.8579 30.6628C91.9713 30.4969 92.1251 30.3694 92.3194 30.2803C92.5177 30.1913 92.7464 30.1467 93.0055 30.1467C93.2281 30.1467 93.4325 30.169 93.6187 30.2135C93.8049 30.258 93.9769 30.3167 94.1348 30.3896L93.9648 30.8571C93.8191 30.7924 93.6632 30.7377 93.4973 30.6932C93.3354 30.6487 93.1674 30.6264 92.9933 30.6264C92.8274 30.6264 92.6877 30.6527 92.5744 30.7053C92.4651 30.758 92.3821 30.8329 92.3254 30.93C92.2688 31.0231 92.2404 31.1324 92.2404 31.2579C92.2404 31.4036 92.2688 31.5251 92.3254 31.6222C92.3821 31.7194 92.4752 31.8064 92.6047 31.8833C92.7343 31.9602 92.9063 32.0432 93.1208 32.1322C93.3597 32.2253 93.56 32.3265 93.7219 32.4358C93.8879 32.5411 94.0134 32.6686 94.0984 32.8184C94.1834 32.9681 94.2259 33.1564 94.2259 33.3831Z" fill="#999999"/>
<path d="M88.7841 31.2275C89.1485 31.2275 89.4237 31.3227 89.6099 31.5129C89.8001 31.6991 89.8953 32.0027 89.8953 32.4237V34.5428H89.367V32.4601C89.367 32.197 89.3124 32.0007 89.2031 31.8712C89.0938 31.7416 88.9258 31.6769 88.6991 31.6769C88.3672 31.6769 88.1365 31.7781 88.007 31.9805C87.8815 32.1829 87.8188 32.4743 87.8188 32.8548V34.5428H87.2905V31.2883H87.7155L87.7945 31.7315H87.8248C87.8896 31.6182 87.9726 31.5251 88.0738 31.4522C88.175 31.3753 88.2863 31.3186 88.4077 31.2822C88.5291 31.2458 88.6546 31.2275 88.7841 31.2275Z" fill="#999999"/>
<path d="M86.7479 32.9095C86.7479 33.1807 86.7135 33.4215 86.6447 33.632C86.5799 33.8385 86.4848 34.0146 86.3593 34.1603C86.2338 34.306 86.082 34.4173 85.9039 34.4942C85.7258 34.5671 85.5275 34.6035 85.3089 34.6035C85.1065 34.6035 84.9183 34.5671 84.7442 34.4942C84.5742 34.4173 84.4244 34.306 84.2949 34.1603C84.1694 34.0146 84.0723 33.8385 84.0035 33.632C83.9347 33.4215 83.9003 33.1807 83.9003 32.9095C83.9003 32.5492 83.9569 32.2456 84.0703 31.9987C84.1877 31.7477 84.3536 31.5574 84.5681 31.4279C84.7827 31.2943 85.0357 31.2275 85.3271 31.2275C85.6064 31.2275 85.8513 31.2943 86.0618 31.4279C86.2763 31.5574 86.4443 31.7477 86.5657 31.9987C86.6872 32.2456 86.7479 32.5492 86.7479 32.9095ZM84.4467 32.9095C84.4467 33.1645 84.4771 33.3871 84.5378 33.5774C84.5985 33.7636 84.6936 33.9073 84.8232 34.0085C84.9527 34.1097 85.1186 34.1603 85.321 34.1603C85.5234 34.1603 85.6894 34.1097 85.8189 34.0085C85.9484 33.9073 86.0436 33.7636 86.1043 33.5774C86.169 33.3871 86.2014 33.1645 86.2014 32.9095C86.2014 32.6504 86.169 32.4298 86.1043 32.2476C86.0436 32.0655 85.9484 31.9258 85.8189 31.8287C85.6894 31.7275 85.5214 31.6769 85.315 31.6769C85.0114 31.6769 84.7908 31.7862 84.6532 32.0047C84.5155 32.2233 84.4467 32.5249 84.4467 32.9095Z" fill="#999999"/>
<path d="M83.3545 31.2883V34.5428H82.8263V31.2883H83.3545ZM83.0934 30.0678C83.1744 30.0678 83.2452 30.0961 83.3059 30.1528C83.3666 30.2054 83.397 30.2904 83.397 30.4078C83.397 30.5212 83.3666 30.6062 83.3059 30.6629C83.2452 30.7195 83.1744 30.7479 83.0934 30.7479C83.0084 30.7479 82.9355 30.7195 82.8748 30.6629C82.8141 30.6062 82.7838 30.5212 82.7838 30.4078C82.7838 30.2904 82.8141 30.2054 82.8748 30.1528C82.9355 30.0961 83.0084 30.0678 83.0934 30.0678Z" fill="#999999"/>
<path d="M82.0202 34.1661C82.0971 34.1661 82.1761 34.16 82.257 34.1479C82.338 34.1317 82.4048 34.1155 82.4574 34.0993V34.5061C82.4007 34.5345 82.3198 34.5567 82.2145 34.5729C82.1133 34.5932 82.0162 34.6033 81.9231 34.6033C81.7612 34.6033 81.6114 34.5749 81.4738 34.5183C81.3362 34.4575 81.2248 34.3543 81.1398 34.2086C81.0589 34.0629 81.0184 33.8585 81.0184 33.5953V31.7009H80.5873V31.4459L81.0305 31.2334L81.2309 30.5412H81.5466V31.288H82.4331V31.7009H81.5466V33.5832C81.5466 33.7815 81.5912 33.9293 81.6802 34.0264C81.7693 34.1195 81.8826 34.1661 82.0202 34.1661Z" fill="#999999"/>
<path d="M79.1584 31.2328C79.5308 31.2328 79.808 31.3198 79.9902 31.4939C80.1764 31.668 80.2695 31.9453 80.2695 32.3258V34.542H79.887L79.7837 34.0806H79.7595C79.6704 34.1979 79.5793 34.2971 79.4862 34.3781C79.3972 34.455 79.2919 34.5117 79.1705 34.5481C79.0531 34.5845 78.9074 34.6027 78.7333 34.6027C78.5512 34.6027 78.3873 34.5683 78.2415 34.4995C78.0958 34.4307 77.9805 34.3255 77.8955 34.1838C77.8105 34.038 77.768 33.8559 77.768 33.6373C77.768 33.3135 77.8874 33.0645 78.1262 32.8905C78.365 32.7123 78.7333 32.6152 79.2312 32.599L79.7473 32.5808V32.3865C79.7473 32.1153 79.6927 31.927 79.5834 31.8218C79.4781 31.7165 79.3263 31.6639 79.128 31.6639C78.9701 31.6639 78.8183 31.6902 78.6726 31.7429C78.531 31.7914 78.3954 31.8481 78.2658 31.9129L78.1019 31.5121C78.2395 31.4352 78.3994 31.3704 78.5815 31.3178C78.7637 31.2612 78.956 31.2328 79.1584 31.2328ZM79.3041 32.9694C78.9317 32.9856 78.6726 33.0503 78.5269 33.1637C78.3852 33.277 78.3144 33.4369 78.3144 33.6434C78.3144 33.8255 78.365 33.9591 78.4662 34.0441C78.5674 34.1291 78.6989 34.1716 78.8608 34.1716C79.1118 34.1716 79.3223 34.0967 79.4923 33.947C79.6623 33.7931 79.7473 33.5584 79.7473 33.2426V32.9512L79.3041 32.9694Z" fill="#999999"/>
<path d="M76.2564 31.2275C76.6045 31.2275 76.8636 31.3227 77.0336 31.5129C77.2036 31.6991 77.2886 32.0027 77.2886 32.4237V34.5428H76.7664V32.448C76.7664 32.193 76.7158 32.0007 76.6146 31.8712C76.5175 31.7416 76.3637 31.6769 76.1532 31.6769C75.8618 31.6769 75.6533 31.7679 75.5278 31.9501C75.4064 32.1323 75.3457 32.3974 75.3457 32.7455V34.5428H74.8174V32.448C74.8174 32.278 74.7952 32.1363 74.7506 32.023C74.7061 31.9056 74.6393 31.8185 74.5503 31.7619C74.4612 31.7052 74.3459 31.6769 74.2042 31.6769C74.0018 31.6769 73.8419 31.7234 73.7245 31.8165C73.6071 31.9056 73.5242 32.0371 73.4756 32.2112C73.427 32.3853 73.4027 32.5998 73.4027 32.8548V34.5428H72.8745V31.2883H73.2995L73.3784 31.7315H73.4088C73.4736 31.6182 73.5525 31.5251 73.6456 31.4522C73.7387 31.3753 73.8419 31.3186 73.9552 31.2822C74.0686 31.2458 74.186 31.2275 74.3074 31.2275C74.5422 31.2275 74.7385 31.2721 74.8964 31.3611C75.0542 31.4502 75.1696 31.5878 75.2424 31.774H75.2789C75.3801 31.5878 75.5177 31.4502 75.6918 31.3611C75.8699 31.2721 76.0581 31.2275 76.2564 31.2275Z" fill="#999999"/>
<path d="M72.3332 32.9095C72.3332 33.1807 72.2988 33.4215 72.23 33.632C72.1653 33.8385 72.0701 34.0146 71.9446 34.1603C71.8192 34.306 71.6674 34.4173 71.4893 34.4942C71.3112 34.5671 71.1128 34.6035 70.8942 34.6035C70.6919 34.6035 70.5036 34.5671 70.3296 34.4942C70.1596 34.4173 70.0098 34.306 69.8803 34.1603C69.7548 34.0146 69.6576 33.8385 69.5888 33.632C69.52 33.4215 69.4856 33.1807 69.4856 32.9095C69.4856 32.5492 69.5423 32.2456 69.6556 31.9987C69.773 31.7477 69.939 31.5574 70.1535 31.4279C70.368 31.2943 70.621 31.2275 70.9125 31.2275C71.1918 31.2275 71.4367 31.2943 71.6471 31.4279C71.8617 31.5574 72.0297 31.7477 72.1511 31.9987C72.2725 32.2456 72.3332 32.5492 72.3332 32.9095ZM70.0321 32.9095C70.0321 33.1645 70.0624 33.3871 70.1231 33.5774C70.1839 33.7636 70.279 33.9073 70.4085 34.0085C70.538 34.1097 70.704 34.1603 70.9064 34.1603C71.1088 34.1603 71.2747 34.1097 71.4043 34.0085C71.5338 33.9073 71.6289 33.7636 71.6896 33.5774C71.7544 33.3871 71.7868 33.1645 71.7868 32.9095C71.7868 32.6504 71.7544 32.4298 71.6896 32.2476C71.6289 32.0655 71.5338 31.9258 71.4043 31.8287C71.2747 31.7275 71.1068 31.6769 70.9003 31.6769C70.5967 31.6769 70.3761 31.7862 70.2385 32.0047C70.1009 32.2233 70.0321 32.5249 70.0321 32.9095Z" fill="#999999"/>
<path d="M68.8557 34.1661C68.9326 34.1661 69.0115 34.16 69.0925 34.1479C69.1734 34.1317 69.2402 34.1155 69.2928 34.0993V34.5061C69.2362 34.5345 69.1552 34.5567 69.05 34.5729C68.9488 34.5932 68.8516 34.6033 68.7585 34.6033C68.5966 34.6033 68.4469 34.5749 68.3092 34.5183C68.1716 34.4575 68.0603 34.3543 67.9753 34.2086C67.8943 34.0629 67.8539 33.8585 67.8539 33.5953V31.7009H67.4228V31.4459L67.866 31.2334L68.0664 30.5412H68.3821V31.288H69.2686V31.7009H68.3821V33.5832C68.3821 33.7815 68.4266 33.9293 68.5157 34.0264C68.6047 34.1195 68.7181 34.1661 68.8557 34.1661Z" fill="#999999"/>
<path d="M67.0891 31.288V34.5426H66.6641L66.5851 34.1115H66.5608C66.4961 34.2248 66.4111 34.3179 66.3058 34.3908C66.2046 34.4636 66.0933 34.5162 65.9719 34.5486C65.8505 34.5851 65.7229 34.6033 65.5894 34.6033C65.3465 34.6033 65.1421 34.5628 64.9761 34.4818C64.8102 34.3968 64.6847 34.2673 64.5997 34.0932C64.5187 33.9192 64.4783 33.6945 64.4783 33.4193V31.288H65.0126V33.3828C65.0126 33.6419 65.0672 33.8362 65.1765 33.9657C65.2858 34.0953 65.4538 34.16 65.6804 34.16C65.9031 34.16 66.0771 34.1155 66.2026 34.0264C66.3321 33.9333 66.4232 33.7998 66.4758 33.6257C66.5325 33.4476 66.5608 33.233 66.5608 32.9821V31.288H67.0891Z" fill="#999999"/>
<path d="M63.7097 34.5423L63.2361 33.2004H61.6271L61.1596 34.5423H60.6071L62.1857 30.1887H62.6957L64.2683 34.5423H63.7097ZM62.629 31.4031C62.6209 31.3707 62.6026 31.312 62.5743 31.227C62.55 31.142 62.5237 31.055 62.4954 30.9659C62.4711 30.8728 62.4509 30.802 62.4347 30.7534C62.4144 30.8344 62.3922 30.9174 62.3679 31.0024C62.3476 31.0833 62.3274 31.1582 62.3072 31.227C62.2869 31.2958 62.2687 31.3545 62.2525 31.4031L61.8032 32.7147H63.0783L62.629 31.4031Z" fill="#999999"/>
<path d="M59.1699 31.2275C59.2266 31.2275 59.2873 31.2316 59.3521 31.2397C59.4169 31.2437 59.4735 31.2518 59.5221 31.264L59.4614 31.7558C59.4128 31.7437 59.3582 31.7335 59.2974 31.7254C59.2408 31.7173 59.1861 31.7133 59.1335 31.7133C59.0161 31.7133 58.9048 31.7396 58.7996 31.7922C58.6943 31.8449 58.5992 31.9197 58.5142 32.0169C58.4332 32.11 58.3685 32.2233 58.3199 32.3569C58.2713 32.4905 58.247 32.6403 58.247 32.8062V34.5428H57.7188V31.2883H58.1499L58.2106 31.8833H58.2349C58.2997 31.7619 58.3766 31.6526 58.4656 31.5554C58.5587 31.4542 58.664 31.3753 58.7814 31.3186C58.8987 31.2579 59.0283 31.2275 59.1699 31.2275Z" fill="#999999"/>
<path d="M57.1762 32.9095C57.1762 33.1807 57.1417 33.4215 57.0729 33.632C57.0082 33.8385 56.913 34.0146 56.7876 34.1603C56.6621 34.306 56.5103 34.4173 56.3322 34.4942C56.1541 34.5671 55.9557 34.6035 55.7372 34.6035C55.5348 34.6035 55.3466 34.5671 55.1725 34.4942C55.0025 34.4173 54.8527 34.306 54.7232 34.1603C54.5977 34.0146 54.5006 33.8385 54.4318 33.632C54.3629 33.4215 54.3285 33.1807 54.3285 32.9095C54.3285 32.5492 54.3852 32.2456 54.4985 31.9987C54.6159 31.7477 54.7819 31.5574 54.9964 31.4279C55.211 31.2943 55.4639 31.2275 55.7554 31.2275C56.0347 31.2275 56.2796 31.2943 56.4901 31.4279C56.7046 31.5574 56.8726 31.7477 56.994 31.9987C57.1154 32.2456 57.1762 32.5492 57.1762 32.9095ZM54.875 32.9095C54.875 33.1645 54.9053 33.3871 54.9661 33.5774C55.0268 33.7636 55.1219 33.9073 55.2514 34.0085C55.381 34.1097 55.5469 34.1603 55.7493 34.1603C55.9517 34.1603 56.1177 34.1097 56.2472 34.0085C56.3767 33.9073 56.4718 33.7636 56.5326 33.5774C56.5973 33.3871 56.6297 33.1645 56.6297 32.9095C56.6297 32.6504 56.5973 32.4298 56.5326 32.2476C56.4718 32.0655 56.3767 31.9258 56.2472 31.8287C56.1177 31.7275 55.9497 31.6769 55.7432 31.6769C55.4397 31.6769 55.219 31.7862 55.0814 32.0047C54.9438 32.2233 54.875 32.5249 54.875 32.9095Z" fill="#999999"/>
<path d="M52.3716 34.5424H51.8312V30.207H54.1141V30.6867H52.3716V32.2229H54.0048V32.7026H52.3716V34.5424Z" fill="#999999"/>
<path d="M50.0272 33.6442C50.0272 33.8547 49.9766 34.0307 49.8754 34.1724C49.7782 34.3141 49.6386 34.4214 49.4564 34.4942C49.2743 34.5671 49.0557 34.6035 48.8007 34.6035C48.5862 34.6035 48.4 34.5853 48.2421 34.5489C48.0883 34.5125 47.9527 34.4619 47.8353 34.3971V33.9113C47.9608 33.9761 48.1106 34.0368 48.2846 34.0935C48.4587 34.1461 48.6347 34.1724 48.8128 34.1724C49.0598 34.1724 49.2379 34.1299 49.3472 34.0449C49.4605 33.9559 49.5172 33.8385 49.5172 33.6927C49.5172 33.6118 49.4949 33.5389 49.4504 33.4742C49.4099 33.4094 49.335 33.3446 49.2257 33.2799C49.1205 33.2151 48.9667 33.1422 48.7643 33.0613C48.57 32.9803 48.402 32.8993 48.2603 32.8184C48.1227 32.7374 48.0154 32.6403 47.9385 32.5269C47.8657 32.4136 47.8292 32.2679 47.8292 32.0898C47.8292 31.8145 47.9345 31.602 48.145 31.4522C48.3595 31.3024 48.6388 31.2275 48.9829 31.2275C49.1691 31.2275 49.3431 31.2478 49.505 31.2883C49.6669 31.3247 49.8207 31.3773 49.9665 31.4461L49.7904 31.8712C49.7054 31.8307 49.6163 31.7963 49.5232 31.7679C49.4301 31.7356 49.335 31.7113 49.2379 31.6951C49.1448 31.6748 49.0496 31.6647 48.9525 31.6647C48.7542 31.6647 48.6024 31.7012 48.4971 31.774C48.3919 31.8428 48.3393 31.938 48.3393 32.0594C48.3393 32.1484 48.3635 32.2254 48.4121 32.2901C48.4607 32.3549 48.5396 32.4176 48.6489 32.4784C48.7622 32.535 48.9161 32.6018 49.1104 32.6787C49.3047 32.7556 49.4706 32.8346 49.6082 32.9155C49.7459 32.9965 49.8491 33.0957 49.9179 33.2131C49.9908 33.3264 50.0272 33.4701 50.0272 33.6442Z" fill="#999999"/>
<path d="M46.2181 31.2275C46.4812 31.2275 46.7078 31.2883 46.8981 31.4097C47.0883 31.5311 47.2341 31.7032 47.3352 31.9258C47.4405 32.1444 47.4931 32.4014 47.4931 32.6969V33.0188H45.4045C45.4125 33.3871 45.4996 33.6685 45.6655 33.8628C45.8315 34.053 46.0642 34.1481 46.3638 34.1481C46.5581 34.1481 46.7301 34.1299 46.8799 34.0935C47.0337 34.053 47.1915 33.9963 47.3535 33.9235V34.391C47.1956 34.4639 47.0398 34.5165 46.8859 34.5489C46.7362 34.5853 46.554 34.6035 46.3395 34.6035C46.0481 34.6035 45.791 34.5408 45.5684 34.4153C45.3458 34.2898 45.1717 34.1036 45.0462 33.8567C44.9207 33.6057 44.858 33.3001 44.858 32.9398C44.858 32.5836 44.9147 32.278 45.028 32.023C45.1413 31.7679 45.2992 31.5716 45.5016 31.434C45.708 31.2964 45.9469 31.2275 46.2181 31.2275ZM46.2181 31.6647C45.9833 31.6647 45.7971 31.7477 45.6595 31.9137C45.5218 32.0756 45.4409 32.3023 45.4166 32.5937H46.9467C46.9467 32.4075 46.9203 32.2456 46.8677 32.108C46.8151 31.9703 46.7342 31.8631 46.6249 31.7862C46.5196 31.7052 46.384 31.6647 46.2181 31.6647Z" fill="#999999"/>
<path d="M44.3108 31.2883V34.5428H43.7826V31.2883H44.3108ZM44.0498 30.0678C44.1307 30.0678 44.2015 30.0961 44.2623 30.1528C44.323 30.2054 44.3533 30.2904 44.3533 30.4078C44.3533 30.5212 44.323 30.6062 44.2623 30.6629C44.2015 30.7195 44.1307 30.7479 44.0498 30.7479C43.9647 30.7479 43.8919 30.7195 43.8312 30.6629C43.7705 30.6062 43.7401 30.5212 43.7401 30.4078C43.7401 30.2904 43.7705 30.2054 43.8312 30.1528C43.8919 30.0961 43.9647 30.0678 44.0498 30.0678Z" fill="#999999"/>
<path d="M41.5851 31.2275C41.7875 31.2275 41.9676 31.268 42.1255 31.349C42.2874 31.4299 42.425 31.5534 42.5384 31.7194H42.5687L42.6355 31.2883H43.0605V34.5975C43.0605 34.9051 43.0099 35.1621 42.9087 35.3686C42.8116 35.5791 42.6598 35.737 42.4534 35.8422C42.251 35.9475 41.9919 36.0001 41.6762 36.0001C41.4536 36.0001 41.2512 35.9819 41.069 35.9454C40.8869 35.913 40.7209 35.8624 40.5712 35.7936V35.3018C40.6723 35.3544 40.7816 35.399 40.899 35.4354C41.0205 35.4759 41.148 35.5062 41.2815 35.5265C41.4192 35.5467 41.5608 35.5568 41.7066 35.5568C41.9656 35.5568 42.168 35.4738 42.3137 35.3079C42.4635 35.146 42.5384 34.9233 42.5384 34.64V34.5125C42.5384 34.4639 42.5404 34.3951 42.5445 34.306C42.5485 34.2129 42.5525 34.1481 42.5566 34.1117H42.5323C42.4271 34.2777 42.2955 34.4011 42.1376 34.4821C41.9798 34.5631 41.7976 34.6035 41.5912 34.6035C41.1986 34.6035 40.8909 34.4558 40.6683 34.1603C40.4457 33.8648 40.3344 33.4519 40.3344 32.9216C40.3344 32.5735 40.3829 32.2739 40.4801 32.023C40.5813 31.7679 40.725 31.5716 40.9112 31.434C41.1014 31.2964 41.3261 31.2275 41.5851 31.2275ZM41.6701 31.6769C41.5042 31.6769 41.3605 31.7254 41.239 31.8226C41.1217 31.9197 41.0326 32.0614 40.9719 32.2476C40.9112 32.4338 40.8808 32.6605 40.8808 32.9277C40.8808 33.3284 40.9476 33.6361 41.0812 33.8506C41.2188 34.0611 41.4192 34.1664 41.6823 34.1664C41.832 34.1664 41.9616 34.1461 42.0709 34.1056C42.1801 34.0611 42.2692 33.9943 42.338 33.9053C42.4068 33.8122 42.4574 33.6948 42.4898 33.5531C42.5262 33.4114 42.5445 33.2434 42.5445 33.0491V32.9216C42.5445 32.6261 42.5121 32.3873 42.4473 32.2051C42.3866 32.023 42.2915 31.8894 42.1619 31.8044C42.0365 31.7194 41.8725 31.6769 41.6701 31.6769Z" fill="#999999"/>
<path d="M39.9619 32.9095C39.9619 33.1807 39.9274 33.4215 39.8586 33.632C39.7939 33.8385 39.6987 34.0146 39.5733 34.1603C39.4478 34.306 39.296 34.4173 39.1179 34.4942C38.9398 34.5671 38.7414 34.6035 38.5229 34.6035C38.3205 34.6035 38.1323 34.5671 37.9582 34.4942C37.7882 34.4173 37.6384 34.306 37.5089 34.1603C37.3834 34.0146 37.2863 33.8385 37.2175 33.632C37.1486 33.4215 37.1142 33.1807 37.1142 32.9095C37.1142 32.5492 37.1709 32.2456 37.2842 31.9987C37.4016 31.7477 37.5676 31.5574 37.7821 31.4279C37.9967 31.2943 38.2496 31.2275 38.5411 31.2275C38.8204 31.2275 39.0653 31.2943 39.2758 31.4279C39.4903 31.5574 39.6583 31.7477 39.7797 31.9987C39.9011 32.2456 39.9619 32.5492 39.9619 32.9095ZM37.6607 32.9095C37.6607 33.1645 37.691 33.3871 37.7518 33.5774C37.8125 33.7636 37.9076 33.9073 38.0371 34.0085C38.1667 34.1097 38.3326 34.1603 38.535 34.1603C38.7374 34.1603 38.9034 34.1097 39.0329 34.0085C39.1624 33.9073 39.2575 33.7636 39.3183 33.5774C39.383 33.3871 39.4154 33.1645 39.4154 32.9095C39.4154 32.6504 39.383 32.4298 39.3183 32.2476C39.2575 32.0655 39.1624 31.9258 39.0329 31.8287C38.9034 31.7275 38.7354 31.6769 38.5289 31.6769C38.2254 31.6769 38.0047 31.7862 37.8671 32.0047C37.7295 32.2233 37.6607 32.5249 37.6607 32.9095Z" fill="#999999"/>
<path d="M36.5667 34.5429H36.0385V29.9282H36.5667V34.5429Z" fill="#999999"/>
<path d="M35.4959 32.9095C35.4959 33.1807 35.4614 33.4215 35.3926 33.632C35.3279 33.8385 35.2327 34.0146 35.1073 34.1603C34.9818 34.306 34.83 34.4173 34.6519 34.4942C34.4738 34.5671 34.2754 34.6035 34.0569 34.6035C33.8545 34.6035 33.6663 34.5671 33.4922 34.4942C33.3222 34.4173 33.1724 34.306 33.0429 34.1603C32.9174 34.0146 32.8203 33.8385 32.7515 33.632C32.6826 33.4215 32.6482 33.1807 32.6482 32.9095C32.6482 32.5492 32.7049 32.2456 32.8182 31.9987C32.9356 31.7477 33.1016 31.5574 33.3161 31.4279C33.5307 31.2943 33.7836 31.2275 34.0751 31.2275C34.3544 31.2275 34.5993 31.2943 34.8098 31.4279C35.0243 31.5574 35.1923 31.7477 35.3137 31.9987C35.4351 32.2456 35.4959 32.5492 35.4959 32.9095ZM33.1947 32.9095C33.1947 33.1645 33.225 33.3871 33.2858 33.5774C33.3465 33.7636 33.4416 33.9073 33.5711 34.0085C33.7007 34.1097 33.8666 34.1603 34.069 34.1603C34.2714 34.1603 34.4374 34.1097 34.5669 34.0085C34.6964 33.9073 34.7915 33.7636 34.8523 33.5774C34.917 33.3871 34.9494 33.1645 34.9494 32.9095C34.9494 32.6504 34.917 32.4298 34.8523 32.2476C34.7915 32.0655 34.6964 31.9258 34.5669 31.8287C34.4374 31.7275 34.2694 31.6769 34.0629 31.6769C33.7594 31.6769 33.5388 31.7862 33.4011 32.0047C33.2635 32.2233 33.1947 32.5249 33.1947 32.9095Z" fill="#999999"/>
<path d="M31.0089 31.2275C31.3732 31.2275 31.6485 31.3227 31.8347 31.5129C32.0249 31.6991 32.1201 32.0027 32.1201 32.4237V34.5428H31.5918V32.4601C31.5918 32.197 31.5372 32.0007 31.4279 31.8712C31.3186 31.7416 31.1506 31.6769 30.9239 31.6769C30.592 31.6769 30.3613 31.7781 30.2318 31.9805C30.1063 32.1829 30.0435 32.4743 30.0435 32.8548V34.5428H29.5153V31.2883H29.9403L30.0193 31.7315H30.0496C30.1144 31.6182 30.1974 31.5251 30.2985 31.4522C30.3997 31.3753 30.5111 31.3186 30.6325 31.2822C30.7539 31.2458 30.8794 31.2275 31.0089 31.2275Z" fill="#999999"/>
<path d="M26.7404 31.2823C26.7404 31.3592 26.7364 31.4381 26.7283 31.5191C26.7243 31.6 26.7182 31.6729 26.7101 31.7377H26.7465C26.8113 31.6243 26.8922 31.5312 26.9894 31.4584C27.0906 31.3855 27.1999 31.3309 27.3173 31.2944C27.4387 31.2539 27.5642 31.2337 27.6937 31.2337C27.9406 31.2337 28.1471 31.2762 28.313 31.3612C28.479 31.4422 28.6045 31.5697 28.6895 31.7437C28.7745 31.9178 28.817 32.1445 28.817 32.4238V34.5429H28.2887V32.4602C28.2887 32.1971 28.2341 32.0008 28.1248 31.8713C28.0155 31.7417 27.8475 31.677 27.6208 31.677C27.3982 31.677 27.2221 31.7235 27.0926 31.8166C26.9631 31.9057 26.872 32.0392 26.8194 32.2174C26.7668 32.3914 26.7404 32.606 26.7404 32.861V34.5429H26.2122V29.9282H26.7404V31.2823Z" fill="#999999"/>
<path d="M24.9304 34.6035C24.6551 34.6035 24.4123 34.5448 24.2018 34.4274C23.9913 34.3101 23.8254 34.1279 23.7039 33.881C23.5865 33.634 23.5278 33.3183 23.5278 32.9338C23.5278 32.533 23.5906 32.2071 23.7161 31.9562C23.8415 31.7052 24.0116 31.521 24.2261 31.4036C24.4447 31.2862 24.6916 31.2275 24.9668 31.2275C25.1247 31.2275 25.2765 31.2458 25.4222 31.2822C25.572 31.3146 25.6934 31.3551 25.7865 31.4036L25.6226 31.8469C25.5295 31.8104 25.4202 31.776 25.2947 31.7437C25.1733 31.7113 25.0599 31.6951 24.9547 31.6951C24.7563 31.6951 24.5924 31.7416 24.4629 31.8347C24.3333 31.9278 24.2362 32.0655 24.1714 32.2476C24.1067 32.4298 24.0743 32.6565 24.0743 32.9277C24.0743 33.1867 24.1067 33.4074 24.1714 33.5895C24.2362 33.7717 24.3313 33.9093 24.4568 34.0024C24.5863 34.0955 24.7442 34.1421 24.9304 34.1421C25.0964 34.1421 25.2441 34.1238 25.3736 34.0874C25.5032 34.051 25.6226 34.0065 25.7319 33.9538V34.4274C25.6266 34.4841 25.5113 34.5266 25.3858 34.555C25.2603 34.5873 25.1085 34.6035 24.9304 34.6035Z" fill="#999999"/>
<path d="M21.8998 31.2275C22.1629 31.2275 22.3896 31.2883 22.5798 31.4097C22.7701 31.5311 22.9158 31.7032 23.017 31.9258C23.1222 32.1444 23.1748 32.4014 23.1748 32.6969V33.0188H21.0862C21.0943 33.3871 21.1813 33.6685 21.3473 33.8628C21.5132 34.053 21.746 34.1481 22.0455 34.1481C22.2398 34.1481 22.4118 34.1299 22.5616 34.0935C22.7154 34.053 22.8733 33.9963 23.0352 33.9235V34.391C22.8773 34.4639 22.7215 34.5165 22.5677 34.5489C22.4179 34.5853 22.2358 34.6035 22.0212 34.6035C21.7298 34.6035 21.4727 34.5408 21.2501 34.4153C21.0275 34.2898 20.8534 34.1036 20.728 33.8567C20.6025 33.6057 20.5397 33.3001 20.5397 32.9398C20.5397 32.5836 20.5964 32.278 20.7097 32.023C20.8231 31.7679 20.9809 31.5716 21.1833 31.434C21.3898 31.2964 21.6286 31.2275 21.8998 31.2275ZM21.8998 31.6647C21.665 31.6647 21.4788 31.7477 21.3412 31.9137C21.2036 32.0756 21.1226 32.3023 21.0983 32.5937H22.6284C22.6284 32.4075 22.6021 32.2456 22.5495 32.108C22.4968 31.9703 22.4159 31.8631 22.3066 31.7862C22.2013 31.7052 22.0657 31.6647 21.8998 31.6647Z" fill="#999999"/>
<path d="M19.556 34.5424H19.0156V30.6867H17.7527V30.207H20.8068V30.6867H19.556V34.5424Z" fill="#999999"/>
<path d="M16.1328 34.1661C16.2097 34.1661 16.2887 34.16 16.3696 34.1479C16.4506 34.1317 16.5174 34.1155 16.57 34.0993V34.5061C16.5133 34.5345 16.4324 34.5567 16.3271 34.5729C16.2259 34.5932 16.1288 34.6033 16.0357 34.6033C15.8738 34.6033 15.724 34.5749 15.5864 34.5183C15.4488 34.4575 15.3374 34.3543 15.2524 34.2086C15.1715 34.0629 15.131 33.8585 15.131 33.5953V31.7009H14.6999V31.4459L15.1431 31.2334L15.3435 30.5412H15.6592V31.288H16.5457V31.7009H15.6592V33.5832C15.6592 33.7815 15.7038 33.9293 15.7928 34.0264C15.8819 34.1195 15.9952 34.1661 16.1328 34.1661Z" fill="#999999"/>
<path d="M13.0053 32.8789L11.9488 31.288H12.5499L13.3271 32.5145L14.0921 31.288H14.6932L13.6367 32.8789L14.7478 34.5426H14.1468L13.3271 33.2432L12.4953 34.5426H11.9002L13.0053 32.8789Z" fill="#999999"/>
<path d="M10.597 31.2275C10.8601 31.2275 11.0868 31.2883 11.277 31.4097C11.4673 31.5311 11.613 31.7032 11.7142 31.9258C11.8194 32.1444 11.8721 32.4014 11.8721 32.6969V33.0188H9.7834C9.7915 33.3871 9.87853 33.6685 10.0445 33.8628C10.2104 34.053 10.4432 34.1481 10.7427 34.1481C10.937 34.1481 11.1091 34.1299 11.2588 34.0935C11.4126 34.053 11.5705 33.9963 11.7324 33.9235V34.391C11.5745 34.4639 11.4187 34.5165 11.2649 34.5489C11.1151 34.5853 10.933 34.6035 10.7184 34.6035C10.427 34.6035 10.17 34.5408 9.94734 34.4153C9.72471 34.2898 9.55066 34.1036 9.42518 33.8567C9.29969 33.6057 9.23695 33.3001 9.23695 32.9398C9.23695 32.5836 9.29362 32.278 9.40696 32.023C9.5203 31.7679 9.67816 31.5716 9.88055 31.434C10.087 31.2964 10.3258 31.2275 10.597 31.2275ZM10.597 31.6647C10.3622 31.6647 10.176 31.7477 10.0384 31.9137C9.90079 32.0756 9.81983 32.3023 9.79555 32.5937H11.3256C11.3256 32.4075 11.2993 32.2456 11.2467 32.108C11.1941 31.9703 11.1131 31.8631 11.0038 31.7862C10.8986 31.7052 10.763 31.6647 10.597 31.6647Z" fill="#999999"/>
<path d="M8.61923 34.5424H7.98171L5.83233 30.9417H5.80805C5.81209 31.0146 5.81614 31.0955 5.82019 31.1846C5.82828 31.2736 5.83436 31.3708 5.8384 31.476C5.84245 31.5772 5.8465 31.6825 5.85055 31.7918C5.8546 31.9011 5.85662 32.0104 5.85662 32.1197V34.5424H5.35874V30.207H5.9902L8.1335 33.7955H8.15778C8.15374 33.7469 8.14969 33.6802 8.14564 33.5952C8.14159 33.5061 8.13755 33.4089 8.1335 33.3037C8.12945 33.1944 8.1254 33.0831 8.12135 32.9697C8.11731 32.8564 8.11528 32.7512 8.11528 32.654V30.207H8.61923V34.5424Z" fill="#999999"/>
<defs>
<linearGradient id="paint0_linear_194_22" x1="26.9666" y1="2.45167" x2="39.8971" y2="15.6426" gradientUnits="userSpaceOnUse">
<stop stop-color="#A8F3D7"/>
<stop offset="1" stop-color="#0F9F81"/>
</linearGradient>
<linearGradient id="paint1_linear_194_22" x1="11.8682" y1="2.84233" x2="38.0085" y2="23.6534" gradientUnits="userSpaceOnUse">
<stop stop-color="#5E00FF"/>
<stop offset="1" stop-color="#44E8AB"/>
</linearGradient>
<linearGradient id="paint2_linear_194_22" x1="3.12305" y1="3.70156" x2="14.1256" y2="24.8446" gradientUnits="userSpaceOnUse">
<stop stop-color="#738FFF"/>
<stop offset="1" stop-color="#4900FF"/>
</linearGradient>
</defs>
</svg>
